<svg width="19" height="19" viewBox="0 0 19 19" fill="none" xmlns="http://www.w3.org/2000/svg">
<path d="M12.7109 9.89038C12.7109 9.49256 12.869 9.11103 13.1503 8.82972C13.4316 8.54842 13.8131 8.39038 14.2109 8.39038C14.6088 8.39038 14.9903 8.54842 15.2716 8.82972C15.5529 9.11103 15.7109 9.49256 15.7109 9.89038C15.7109 10.2882 15.5529 10.6697 15.2716 10.951C14.9903 11.2323 14.6088 11.3904 14.2109 11.3904C13.8131 11.3904 13.4316 11.2323 13.1503 10.951C12.869 10.6697 12.7109 10.2882 12.7109 9.89038ZM8.21094 9.89038C8.21094 9.49256 8.36897 9.11103 8.65028 8.82972C8.93158 8.54842 9.31311 8.39038 9.71094 8.39038C10.1088 8.39038 10.4903 8.54842 10.7716 8.82972C11.0529 9.11103 11.2109 9.49256 11.2109 9.89038C11.2109 10.2882 11.0529 10.6697 10.7716 10.951C10.4903 11.2323 10.1088 11.3904 9.71094 11.3904C9.31311 11.3904 8.93158 11.2323 8.65028 10.951C8.36897 10.6697 8.21094 10.2882 8.21094 9.89038ZM3.71094 9.89038C3.71094 9.49256 3.86897 9.11103 4.15028 8.82972C4.43158 8.54842 4.81311 8.39038 5.21094 8.39038C5.60876 8.39038 5.99029 8.54842 6.2716 8.82972C6.5529 9.11103 6.71094 9.49256 6.71094 9.89038C6.71094 10.2882 6.5529 10.6697 6.2716 10.951C5.99029 11.2323 5.60876 11.3904 5.21094 11.3904C4.81311 11.3904 4.43158 11.2323 4.15028 10.951C3.86897 10.6697 3.71094 10.2882 3.71094 9.89038V9.89038Z" fill="black"/>
</svg>
