<svg width="21" height="21" viewBox="0 0 21 21" fill="none" xmlns="http://www.w3.org/2000/svg">
<path d="M10.7799 14.2236C11.222 14.2236 11.6459 14.3992 11.9585 14.7118C12.271 15.0243 12.4466 15.4483 12.4466 15.8903C12.4466 16.3323 12.271 16.7562 11.9585 17.0688C11.6459 17.3814 11.222 17.557 10.7799 17.557C10.3379 17.557 9.914 17.3814 9.60144 17.0688C9.28888 16.7562 9.11328 16.3323 9.11328 15.8903C9.11328 15.4483 9.28888 15.0243 9.60144 14.7118C9.914 14.3992 10.3379 14.2236 10.7799 14.2236ZM10.7799 9.22363C11.222 9.22363 11.6459 9.39923 11.9585 9.71179C12.271 10.0243 12.4466 10.4483 12.4466 10.8903C12.4466 11.3323 12.271 11.7562 11.9585 12.0688C11.6459 12.3814 11.222 12.557 10.7799 12.557C10.3379 12.557 9.914 12.3814 9.60144 12.0688C9.28888 11.7562 9.11328 11.3323 9.11328 10.8903C9.11328 10.4483 9.28888 10.0243 9.60144 9.71179C9.914 9.39923 10.3379 9.22363 10.7799 9.22363V9.22363ZM10.7799 4.22363C11.222 4.22363 11.6459 4.39923 11.9585 4.71179C12.271 5.02435 12.4466 5.44827 12.4466 5.8903C12.4466 6.33233 12.271 6.75625 11.9585 7.06881C11.6459 7.38137 11.222 7.55697 10.7799 7.55697C10.3379 7.55697 9.914 7.38137 9.60144 7.06881C9.28888 6.75625 9.11328 6.33233 9.11328 5.8903C9.11328 5.44827 9.28888 5.02435 9.60144 4.71179C9.914 4.39923 10.3379 4.22363 10.7799 4.22363Z" fill="black"/>
</svg>
