<svg width="40" height="40" viewBox="0 0 40 40" fill="none" xmlns="http://www.w3.org/2000/svg">
<rect width="40" height="40" rx="20" fill="url(#paint0_linear_143_553)"/>
<rect x="1" y="1" width="38" height="38" rx="19" stroke="#1E1E1F" stroke-opacity="0.08" stroke-width="2"/>
<path d="M13.0696 24.3271C13.1953 24.1989 13.3656 24.127 13.5432 24.127H29.9315C30.23 24.127 30.3795 24.4955 30.1683 24.7109L26.93 28.0141C26.8044 28.1423 26.634 28.2143 26.4564 28.2143H10.0681C9.76959 28.2143 9.62014 27.8457 9.8313 27.6303L13.0696 24.3271Z" fill="white"/>
<path d="M13.0696 11.9863C13.1953 11.8581 13.3656 11.7861 13.5432 11.7861H29.9315C30.23 11.7861 30.3795 12.1547 30.1683 12.3701L26.93 15.6733C26.8044 15.8014 26.634 15.8734 26.4564 15.8734H10.0681C9.76959 15.8734 9.62014 15.5049 9.8313 15.2895L13.0696 11.9863Z" fill="white"/>
<path d="M26.93 18.1171C26.8044 17.989 26.634 17.917 26.4564 17.917H10.0681C9.76959 17.917 9.62014 18.2855 9.8313 18.5009L13.0696 21.8041C13.1953 21.9323 13.3656 22.0043 13.5432 22.0043H29.9315C30.23 22.0043 30.3795 21.6358 30.1683 21.4203L26.93 18.1171Z" fill="white"/>
<defs>
<linearGradient id="paint0_linear_143_553" x1="30.9917" y1="3.2988" x2="5.36903" y2="36.2423" gradientUnits="userSpaceOnUse">
<stop stop-color="#00FFA3"/>
<stop offset="1" stop-color="#DC1FFF"/>
</linearGradient>
</defs>
</svg>
