<svg width="40" height="40" viewBox="0 0 40 40" fill="none" xmlns="http://www.w3.org/2000/svg">
<rect width="40" height="40" rx="20" fill="#E7BB41"/>
<path d="M22.0749 26.9384V29.2933L19.9701 30.5L17.9251 29.2933V26.9384L19.9701 28.145L22.0749 26.9384ZM10.8125 18.7933L12.8575 20V24.0385L16.3789 26.0918V28.4467L10.8125 25.2451V18.7933ZM29.1276 18.7933V25.2549L23.5014 28.4564V26.1015L27.0228 24.0482V20.0097L29.1276 18.7933ZM23.4915 15.5918L25.5963 16.7984V19.1534L22.0749 21.2067V25.3035L20.0299 26.5102L17.9949 25.3035V21.1969L14.3439 19.1437V16.7887L16.4487 15.582L19.9701 17.6353L23.4915 15.5918ZM14.3439 20.8369L16.3888 22.0436V24.3985L14.3439 23.1918V20.8369ZM25.5963 20.8369V23.1918L23.5513 24.3985V22.0436L25.5963 20.8369ZM12.8575 13.5385L14.9623 14.7451L12.8575 15.9518V18.3068L10.8125 17.1001V14.7451L12.8575 13.5385ZM27.0827 13.5385L29.1875 14.7451V17.1001L27.0827 18.3068V15.9518L25.0377 14.7451L27.0827 13.5385ZM19.9701 13.5385L22.0749 14.7451L19.9701 15.9518L17.9251 14.7451L19.9701 13.5385ZM19.9701 9.5L25.5963 12.7016L23.5513 13.9082L20.0299 11.855L16.4387 13.9082L14.3937 12.7016L19.9701 9.5Z" fill="white"/>
</svg>
