<svg width="40" height="40" viewBox="0 0 40 40" fill="none" xmlns="http://www.w3.org/2000/svg">
<rect width="40" height="40" rx="20" fill="#FF393A"/>
<rect x="1" y="1" width="38" height="38" rx="19" stroke="#1E1E1F" stroke-opacity="0.08" stroke-width="2"/>
<path fill-rule="evenodd" clip-rule="evenodd" d="M11.6566 27.6229H15.0195C15.8113 27.6229 16.2072 27.6229 16.5605 27.525C16.9479 27.41 17.3012 27.2057 17.5949 26.9248C17.8646 26.6677 18.0592 26.3271 18.4432 25.6552L18.4435 25.6547L18.4548 25.6349L22.8163 17.9249C23.2037 17.2481 23.3953 16.9075 23.4804 16.5499C23.5741 16.1625 23.5741 15.7539 23.4804 15.3665C23.396 15.0118 23.2025 14.6737 22.8211 14.0073L22.8208 14.0068L22.8121 13.9916L21.1051 11.0118C20.7518 10.3903 20.573 10.0796 20.3474 9.9646C20.2896 9.93523 20.2292 9.91285 20.1674 9.89746H19.7526C19.6908 9.91285 19.6304 9.93523 19.5726 9.9646C19.347 10.0796 19.1682 10.3903 18.8149 11.0118L10.5115 25.6477C10.1624 26.2607 9.9879 26.5672 10.0007 26.8183C10.0177 27.0908 10.1582 27.3377 10.388 27.4867C10.6009 27.6229 10.95 27.6229 11.6566 27.6229H11.6566ZM28.3307 27.6233H23.5119C22.801 27.6233 22.4435 27.6233 22.2349 27.487C22.005 27.3381 21.8645 27.0869 21.8475 26.8145C21.8348 26.5653 22.0107 26.2616 22.3628 25.654L22.3629 25.6538L22.3711 25.6396L24.7762 21.5104C25.1295 20.9017 25.3083 20.5995 25.5297 20.4846C25.7723 20.3611 26.0575 20.3611 26.3002 20.4846C26.5199 20.5965 26.6912 20.8861 27.0304 21.4598L27.0579 21.5062L29.4715 25.6353L29.5063 25.6954C29.8409 26.2727 30.0117 26.5673 29.9994 26.8102C29.9866 27.0826 29.8418 27.3338 29.612 27.4828C29.3991 27.6233 29.0416 27.6233 28.3307 27.6233Z" fill="white"/>
</svg>
