<svg width="40" height="40" viewBox="0 0 40 40" fill="none" xmlns="http://www.w3.org/2000/svg">
<rect width="40" height="40" rx="20" fill="#FF393A"/>
<path d="M12.7371 26.6323C11.3452 26.6323 10.2048 26.3047 9.31588 25.6498C8.43863 24.9831 8 24.0357 8 22.8075C8 22.5502 8.02927 22.2343 8.08771 21.86C8.23984 21.0179 8.45621 20.0061 8.73691 18.8248C9.53225 15.6083 11.585 14 14.8952 14C15.7958 14 16.6028 14.152 17.3164 14.4561C18.0299 14.7485 18.5913 15.193 19.0007 15.7896C19.41 16.3743 19.6148 17.0762 19.6148 17.8949C19.6148 18.1405 19.5855 18.4505 19.527 18.8248C19.3516 19.8658 19.141 20.8776 18.8954 21.86C18.486 23.4625 17.7784 24.6614 16.7725 25.4568C15.7665 26.2404 14.4215 26.6323 12.7371 26.6323ZM12.9827 24.1058C13.6378 24.1058 14.1933 23.9128 14.6495 23.5268C15.1174 23.1409 15.4508 22.5502 15.6496 21.7548C15.9186 20.6553 16.1233 19.6962 16.2637 18.8774C16.3105 18.6318 16.3338 18.3804 16.3338 18.123C16.3338 17.0586 15.7782 16.5264 14.6671 16.5264C14.012 16.5264 13.4506 16.7194 12.9827 17.1054C12.5266 17.4914 12.1991 18.0821 12.0003 18.8774C11.7897 19.6611 11.5791 20.6203 11.3687 21.7548C11.3218 21.9887 11.2984 22.2343 11.2984 22.4917C11.2984 23.5678 11.8599 24.1058 12.9827 24.1058Z" fill="white"/>
<path d="M20.4205 26.4573C20.2919 26.4573 20.1924 26.4163 20.1222 26.3344C20.0637 26.2408 20.0462 26.1356 20.0696 26.0186L22.4908 14.6144C22.5142 14.4857 22.5785 14.3805 22.6838 14.2986C22.7891 14.2167 22.9002 14.1758 23.0171 14.1758H27.6841C28.9824 14.1758 30.0234 14.4448 30.807 14.9828C31.6025 15.5209 32.0002 16.2987 32.0002 17.3163C32.0002 17.6087 31.9651 17.9129 31.8949 18.2286C31.6025 19.5738 31.0118 20.568 30.1229 21.2113C29.2456 21.8546 28.0408 22.1763 26.5086 22.1763H24.14L23.333 26.0186C23.3095 26.1473 23.2452 26.2525 23.14 26.3344C23.0347 26.4163 22.9235 26.4573 22.8066 26.4573H20.4205ZM26.6314 19.7551C27.1226 19.7551 27.5495 19.6205 27.9122 19.3515C28.2865 19.0825 28.5321 18.6965 28.6491 18.1936C28.6841 17.9947 28.7017 17.8193 28.7017 17.6672C28.7017 17.328 28.6023 17.0707 28.4034 16.8953C28.2045 16.7081 27.8654 16.6146 27.3858 16.6146H25.2804L24.6137 19.7551H26.6314Z" fill="white"/>
</svg>
