<svg width="40" height="40" viewBox="0 0 40 40" fill="none" xmlns="http://www.w3.org/2000/svg">
<rect width="40" height="40" rx="20" fill="#FF393A"/>
<rect x="1" y="1" width="38" height="38" rx="19" stroke="#1E1E1F" stroke-opacity="0.08" stroke-width="2"/>
<path d="M30.8989 17.0046C29.9058 16.0877 28.5321 14.6874 27.4132 13.6943L27.347 13.648C27.2368 13.5595 27.1126 13.4901 26.9795 13.4427V13.4427C24.2816 12.9396 11.7257 10.5926 11.4807 10.6224C11.4121 10.632 11.3464 10.6569 11.2887 10.6952L11.2258 10.7448C11.1484 10.8235 11.0895 10.9185 11.0537 11.0229L11.0371 11.0659V11.301V11.3374C12.4506 15.2733 18.0318 28.167 19.1308 31.1926C19.197 31.3978 19.3228 31.7884 19.5578 31.8083H19.6108C19.7366 31.8083 20.2729 31.0999 20.2729 31.0999C20.2729 31.0999 29.8595 19.4741 30.8294 18.236C30.955 18.0835 31.0658 17.9195 31.1604 17.7461C31.1846 17.6105 31.1732 17.4709 31.1274 17.3409C31.0815 17.211 31.0028 17.0951 30.8989 17.0046V17.0046ZM22.7324 18.3585L26.8239 14.9655L29.2239 17.1768L22.7324 18.3585ZM21.1435 18.1367L14.0991 12.3636L25.4965 14.4656L21.1435 18.1367ZM21.779 19.6495L28.9889 18.4876L20.7462 28.4185L21.779 19.6495ZM13.1425 12.9396L20.5542 19.2291L19.4817 28.4252L13.1425 12.9396Z" fill="white"/>
</svg>
