<svg width="40" height="40" viewBox="0 0 40 40" fill="none" xmlns="http://www.w3.org/2000/svg">
<rect width="40" height="40" rx="20" fill="#529EEA"/>
<path fill-rule="evenodd" clip-rule="evenodd" d="M26.3601 25.6022C26.5168 25.8678 26.6736 26.1333 26.8148 26.4081L26.8129 26.4122L26.0404 26.8898L26.0407 26.8894C26.0406 26.8895 26.0405 26.8896 26.0403 26.8897C25.991 26.8413 25.9508 26.7833 25.9217 26.7188C25.7663 26.4593 25.6119 26.199 25.4576 25.9388C25.3853 25.817 25.3131 25.6952 25.2408 25.5735C24.1743 23.7802 23.1079 21.987 22.0414 20.1939C22.036 20.1848 22.0311 20.1748 22.0263 20.1649C22.0109 20.1333 21.9954 20.1014 21.9587 20.0926C21.9285 20.0995 21.9161 20.1223 21.9042 20.1444C21.9025 20.1475 21.9008 20.1506 21.899 20.1537C21.3122 21.2208 20.7228 22.2863 20.131 23.3503C20.1044 23.3912 20.0911 23.4403 20.0932 23.4901C20.0953 23.5398 20.1127 23.5875 20.1427 23.6257C20.5854 24.3618 21.0269 25.0987 21.4671 25.8363C22.0029 26.7344 22.5386 27.6328 23.0742 28.5314C23.1108 28.5754 23.1345 28.6299 23.1425 28.6881C23.1417 28.6892 23.1409 28.6903 23.1401 28.6914C23.096 28.7168 23.0516 28.7412 23.0083 28.768C22.773 28.9136 22.5375 29.0589 22.3021 29.2043C21.6611 29.6 21.0201 29.9958 20.3814 30.3958C20.2766 30.4699 20.154 30.5101 20.0284 30.5116C19.9027 30.513 19.7793 30.4756 19.6731 30.4039C18.7537 29.8354 17.8328 29.2695 16.9105 28.7065C16.7294 28.5829 16.5409 28.4722 16.3462 28.3749L16.3444 28.3723C16.3567 28.3081 16.3836 28.2482 16.4228 28.1977C18.8103 23.8735 21.1982 19.5495 23.5864 15.2256C23.5956 15.209 23.6046 15.1922 23.6134 15.1756C23.6264 15.151 23.639 15.1266 23.6511 15.103C23.6605 15.0848 23.6697 15.067 23.6786 15.0501C23.6606 15.0166 23.6405 15.0177 23.6223 15.0187H23.6222H23.622C23.6191 15.0189 23.6162 15.019 23.6134 15.019C23.3342 15.0201 23.055 15.0214 22.7758 15.0227H22.7755H22.7753H22.775C22.0341 15.0261 21.2931 15.0295 20.5517 15.0286C20.5081 15.0278 20.4652 15.0412 20.429 15.0671C20.3927 15.0931 20.3648 15.1302 20.3489 15.1736C19.5792 16.5323 18.8086 17.8906 18.0369 19.2485C16.4023 22.1273 14.7675 25.006 13.1325 27.8847L13.1215 27.904C13.1177 27.9105 13.114 27.917 13.1103 27.9235C13.1088 27.9262 13.1072 27.929 13.1057 27.9317C13.1032 27.9363 13.1007 27.9409 13.0982 27.9455C13.0954 27.9508 13.0927 27.9561 13.09 27.9614C13.0695 28.0038 13.0469 28.0207 13.0144 28.0139L15.6792 29.6581C15.6918 29.6707 15.7083 29.6819 15.7266 29.693C15.8863 29.7898 16.046 29.8872 16.2055 29.9851C16.5096 30.1723 16.8137 30.3592 17.1179 30.5459L18.992 31.7023C19.1053 31.7722 19.2243 31.8296 19.3472 31.8742C19.684 32.0038 20.0486 32.0344 20.4024 31.9607C20.6547 31.9089 20.8945 31.8033 21.1077 31.6502C21.9637 31.1158 22.8206 30.5834 23.6784 30.0529C24.5712 29.5039 25.4637 28.954 26.3557 28.4032C27.1952 27.8862 28.0335 27.367 28.8706 26.8457C29.0164 26.7708 29.1548 26.6803 29.2834 26.5756C29.5089 26.3749 29.6901 26.1235 29.8138 25.8394C29.9376 25.5552 30.0009 25.2453 29.9993 24.932C29.9985 21.634 29.9981 18.336 29.9981 15.0381C30.0026 14.9429 29.999 14.8475 29.9875 14.753C29.9384 14.4258 29.8209 14.1145 29.6437 13.8424C29.4666 13.5702 29.2342 13.3442 28.964 13.181C28.7192 13.0271 28.4731 12.8758 28.2268 12.7247C27.6663 12.3815 27.1059 12.0381 26.5455 11.6945C25.9802 11.3481 25.4152 11.0014 24.8503 10.6542C24.2374 10.2771 23.6244 9.90023 23.0114 9.5236C22.817 9.40435 22.6228 9.28481 22.4285 9.16525C21.9712 8.88389 21.5139 8.60247 21.0552 8.32467C20.7531 8.12248 20.4056 8.0106 20.0492 8.00072C19.6927 7.99084 19.3403 8.08331 19.0288 8.26848C18.4306 8.61318 17.8441 8.98053 17.2576 9.34795C17.0465 9.48016 16.8354 9.61238 16.6238 9.74355C16.3879 9.88973 16.1521 10.0361 15.9164 10.1826L15.4905 10.4475L15.4858 10.4504C15.0084 10.7473 14.5311 11.0442 14.0528 11.3398C13.707 11.5537 13.3605 11.766 13.014 11.9784L13.0108 11.9804C12.3391 12.3921 11.6674 12.8038 11.0016 13.2258C10.6953 13.4034 10.4407 13.6676 10.2659 13.9894C10.1463 14.2094 10.0671 14.4506 10.0314 14.7001C10.0106 14.8241 9.99996 14.9504 10 15.0774L10.005 24.9294C10.005 24.9707 10.0062 25.012 10.0084 25.0531V25.1047C10.0084 25.1488 10.0121 25.1931 10.0155 25.2731L10.0285 25.2541C10.0662 25.5134 10.1485 25.7641 10.2723 25.993C10.4472 26.3163 10.6987 26.5849 11.0016 26.7718L12.1937 27.5074L19.4658 15.0578C19.4529 15.0159 19.4287 15.0173 19.4067 15.0185C19.4021 15.0188 19.3975 15.019 19.3932 15.0189C19.2849 15.0154 19.1765 15.0115 19.0681 15.0076C18.7865 14.9975 18.5049 14.9874 18.2236 14.9847C17.6763 14.9674 17.1308 15.0612 16.6163 15.2612C16.1478 15.4464 15.7496 15.7915 15.4835 16.2429C14.1541 18.4562 12.8197 20.6661 11.4803 22.8725C11.4662 22.8959 11.4515 22.9189 11.4369 22.942C11.4299 22.953 11.4228 22.964 11.4159 22.975C11.3817 22.9372 11.3857 22.8921 11.3896 22.848C11.3908 22.834 11.392 22.8201 11.392 22.8066C11.3912 20.2651 11.3879 17.7237 11.3819 15.1823C11.3742 15.0332 11.407 14.885 11.4762 14.7554C11.5455 14.6257 11.6484 14.5202 11.7726 14.4515C12.9346 13.733 14.0967 13.0147 15.2589 12.2966C16.7074 11.4049 18.1541 10.5108 19.599 9.61448C19.7165 9.53377 19.8534 9.49105 19.9932 9.49144C20.1329 9.49183 20.2696 9.53532 20.3867 9.61668C22.9885 11.2183 25.5922 12.8163 28.1977 14.4108C28.3322 14.4835 28.4438 14.5965 28.5189 14.7361C28.594 14.8755 28.6293 15.0354 28.6205 15.196C28.6189 17.8445 28.6181 20.493 28.6181 23.1417C28.6181 23.1836 28.6168 23.2256 28.6155 23.2676L28.6154 23.273L28.6153 23.2757C28.6146 23.296 28.614 23.3164 28.6135 23.3368L28.6134 23.3368C28.5634 23.2892 28.5228 23.2314 28.4941 23.1668C27.9675 22.2905 27.4409 21.4143 26.9142 20.5382C26.1375 19.2468 25.3607 17.9555 24.5837 16.6641C24.4543 16.4508 24.3248 16.2376 24.1963 16.0263C24.1673 16.042 24.1443 16.0679 24.1312 16.0997L23.3926 17.4371C23.324 17.5614 23.2555 17.6857 23.187 17.81L23.1849 17.8137C22.9885 18.1703 22.7921 18.5267 22.5932 18.8817C22.5687 18.9132 22.5553 18.953 22.5553 18.994C22.5553 19.035 22.5687 19.0747 22.5932 19.1062C22.6465 19.184 22.693 19.2672 22.7395 19.3505L22.7396 19.3506C22.7588 19.385 22.7781 19.4194 22.7978 19.4534C23.9241 21.3955 25.0491 23.3386 26.1729 25.2828C26.2346 25.3897 26.2973 25.496 26.3601 25.6022ZM26.0383 26.8911L26.0404 26.8898C26.0404 26.8897 26.0404 26.8897 26.0403 26.8897C26.0397 26.8902 26.039 26.8906 26.0383 26.8911Z" fill="white"/>
</svg>
