<svg width="40" height="40" viewBox="0 0 40 40" fill="none" xmlns="http://www.w3.org/2000/svg">
<rect width="40" height="40" rx="20" fill="#7A4ADD"/>
<path d="M25.0922 16.708C24.7233 16.4934 24.2435 16.4934 23.8376 16.708L20.9594 18.3538L19.0037 19.4272L16.1254 21.073C15.7565 21.2876 15.2767 21.2876 14.8709 21.073L12.583 19.7849C12.214 19.5703 11.9557 19.1767 11.9557 18.7474V16.2071C11.9557 15.7778 12.1771 15.3842 12.583 15.1696L14.8339 13.9173C15.203 13.7027 15.6826 13.7027 16.0886 13.9173L18.3395 15.1696C18.7085 15.3842 18.9668 15.7778 18.9668 16.2071V17.8529L20.9225 16.7438V15.098C20.9225 14.6687 20.7011 14.2751 20.2952 14.0604L16.1254 11.6991C15.7565 11.4844 15.2767 11.4844 14.8709 11.6991L10.6273 14.0604C10.2214 14.2751 10 14.6687 10 15.098V19.8565C10 20.2858 10.2214 20.6794 10.6273 20.8941L14.8709 23.2554C15.2398 23.4701 15.7196 23.4701 16.1254 23.2554L19.0037 21.6454L20.9594 20.5363L23.8376 18.9263C24.2066 18.7116 24.6863 18.7116 25.0922 18.9263L27.3432 20.1785C27.7122 20.3932 27.9705 20.7867 27.9705 21.2161V23.7563C27.9705 24.1856 27.7491 24.5792 27.3432 24.7939L25.0922 26.0819C24.7233 26.2966 24.2435 26.2966 23.8376 26.0819L21.5867 24.8297C21.2177 24.615 20.9594 24.2214 20.9594 23.7921V22.1463L19.0037 23.2554V24.9012C19.0037 25.3306 19.2251 25.7241 19.631 25.9388L23.8746 28.3001C24.2435 28.5148 24.7233 28.5148 25.1291 28.3001L29.3727 25.9388C29.7417 25.7241 30 25.3306 30 24.9012V20.1427C30 19.7134 29.7786 19.3198 29.3727 19.1052L25.0922 16.708Z" fill="white"/>
</svg>
